HIERARCHY
ROOT Hips
{
	OFFSET -0.031289 103.266464 0.443827
	CHANNELS 6 Xposition Yposition Zposition Xrotation Yrotation Zrotation 
	JOINT Spine
	{
		OFFSET -0.002448 12.777534 0.315252
		CHANNELS 3 Xrotation Yrotation Zrotation
		JOINT Spine1
		{
			OFFSET -0.002040 5.816851 0.032640
			CHANNELS 3 Xrotation Yrotation Zrotation
			JOINT Spine1_split
			{
				OFFSET -0.002040 5.816851 0.032640
				CHANNELS 3 Xrotation Yrotation Zrotation
				JOINT Spine2
				{
					OFFSET -0.002040 5.816851 0.032640
					CHANNELS 3 Xrotation Yrotation Zrotation
					JOINT Neck
					{
						OFFSET -0.003672 21.199554 -0.826883
						CHANNELS 3 Xrotation Yrotation Zrotation
						JOINT Head
						{
							OFFSET -0.000000 20.442154 4.834770
							CHANNELS 3 Xrotation Yrotation Zrotation
							JOINT HeadTop_End
							{
								OFFSET 0.000000 34.668427 4.968426
								CHANNELS 3 Xrotation Yrotation Zrotation
								End Site
								{
									OFFSET 0.000000 0.000000 0.000000
								}
							}
						}
					}
					JOINT LeftShoulder
					{
						OFFSET 3.288174 8.794213 -1.372251
						CHANNELS 3 Xrotation Yrotation Zrotation
						JOINT LeftShoulder_split
						{
							OFFSET 3.288174 8.794213 -1.372251
							CHANNELS 3 Xrotation Yrotation Zrotation
							JOINT LeftArm
							{
								OFFSET 11.953302 -2.279037 -0.146175
								CHANNELS 3 Xrotation Yrotation Zrotation
								JOINT LeftForeArm
								{
									OFFSET 18.448874 0.000061 -0.000024
									CHANNELS 3 Xrotation Yrotation Zrotation
									JOINT LeftHand
									{
										OFFSET 29.527794 0.000092 -0.000021
										CHANNELS 3 Xrotation Yrotation Zrotation
										JOINT LeftHandThumb1
										{
											OFFSET 10.739838 -2.369766 9.225297
											CHANNELS 3 Xrotation Yrotation Zrotation
											JOINT LeftHandThumb2
											{
												OFFSET 4.926178 -2.844101 2.844107
												CHANNELS 3 Xrotation Yrotation Zrotation
												JOINT LeftHandThumb3
												{
													OFFSET 4.614899 -2.664444 2.664389
													CHANNELS 3 Xrotation Yrotation Zrotation
													JOINT LeftHandThumb4
													{
														OFFSET 4.432472 -2.559052 2.559026
														CHANNELS 3 Xrotation Yrotation Zrotation
														End Site
														{
															OFFSET 0.000000 0.000000 0.000000
														}
													}
												}
											}
										}
										JOINT LeftHandIndex1
										{
											OFFSET 26.467659 0.187592 6.405249
											CHANNELS 3 Xrotation Yrotation Zrotation
											JOINT LeftHandIndex2
											{
												OFFSET 8.792877 0.000046 -0.000014
												CHANNELS 3 Xrotation Yrotation Zrotation
												JOINT LeftHandIndex3
												{
													OFFSET 10.075157 0.000031 -0.000014
													CHANNELS 3 Xrotation Yrotation Zrotation
													End Site
													{
														OFFSET 0.000000 0.000000 0.000000
													}
												}
											}
										}
										JOINT LeftHandMiddle1
										{
											OFFSET 25.764420 0.000076 -0.000063
											CHANNELS 3 Xrotation Yrotation Zrotation
											JOINT LeftHandMiddle2
											{
												OFFSET 9.368942 -0.468658 -0.500905
												CHANNELS 3 Xrotation Yrotation Zrotation
												JOINT LeftHandMiddle3
												{
													OFFSET 10.758461 -0.538101 0.000023
													CHANNELS 3 Xrotation Yrotation Zrotation
													End Site
													{
														OFFSET 0.000000 0.000000 0.000000
													}
												}
											}
										}
										JOINT LeftHandRing1
										{
											OFFSET 24.660912 0.144745 -6.225863
											CHANNELS 3 Xrotation Yrotation Zrotation
											JOINT LeftHandRing2
											{
												OFFSET 9.393806 0.000046 -0.000017
												CHANNELS 3 Xrotation Yrotation Zrotation
												JOINT LeftHandRing3
												{
													OFFSET 9.928528 -0.000015 -0.000007
													CHANNELS 3 Xrotation Yrotation Zrotation
													End Site
													{
														OFFSET 0.000000 0.000000 0.000000
													}
												}
											}
										}
										JOINT LeftHandPinky1
										{
											OFFSET 23.655312 0.125748 -12.815530
											CHANNELS 3 Xrotation Yrotation Zrotation
											JOINT LeftHandPinky2
											{
												OFFSET 8.425102 0.000031 -0.000015
												CHANNELS 3 Xrotation Yrotation Zrotation
												JOINT LeftHandPinky3
												{
													OFFSET 8.146988 0.000015 -0.000021
													CHANNELS 3 Xrotation Yrotation Zrotation
													End Site
													{
														OFFSET 0.000000 0.000000 0.000000
													}
												}
											}
										}
									}
								}
							}
						}
					}
					JOINT RightShoulder
					{
						OFFSET -3.249397 8.794213 -1.372251
						CHANNELS 3 Xrotation Yrotation Zrotation
						JOINT RightShoulder_split
						{
							OFFSET -3.249397 8.794213 -1.372251
							CHANNELS 3 Xrotation Yrotation Zrotation
							JOINT RightArm
							{
								OFFSET -11.953302 -2.279037 -0.146175
								CHANNELS 3 Xrotation Yrotation Zrotation
								JOINT RightForeArm
								{
									OFFSET -18.448874 0.000061 -0.000024
									CHANNELS 3 Xrotation Yrotation Zrotation
									JOINT RightHand
									{
										OFFSET -29.527794 0.000092 -0.000021
										CHANNELS 3 Xrotation Yrotation Zrotation
										JOINT RightHandThumb1
										{
											OFFSET -10.739838 -2.369766 9.225297
											CHANNELS 3 Xrotation Yrotation Zrotation
											JOINT RightHandThumb2
											{
												OFFSET -4.926178 -2.844101 2.844107
												CHANNELS 3 Xrotation Yrotation Zrotation
												JOINT RightHandThumb3
												{
													OFFSET -4.614899 -2.664444 2.664389
													CHANNELS 3 Xrotation Yrotation Zrotation
													JOINT RightHandThumb4
													{
														OFFSET -4.432472 -2.559052 2.559026
														CHANNELS 3 Xrotation Yrotation Zrotation
														End Site
														{
															OFFSET 0.000000 0.000000 0.000000
														}
													}
												}
											}
										}
										JOINT RightHandIndex1
										{
											OFFSET -26.467659 0.187592 6.405249
											CHANNELS 3 Xrotation Yrotation Zrotation
											JOINT RightHandIndex2
											{
												OFFSET -8.792877 0.000046 -0.000014
												CHANNELS 3 Xrotation Yrotation Zrotation
												JOINT RightHandIndex3
												{
													OFFSET -10.075157 0.000031 -0.000014
													CHANNELS 3 Xrotation Yrotation Zrotation
													End Site
													{
														OFFSET 0.000000 0.000000 0.000000
													}
												}
											}
										}
										JOINT RightHandMiddle1
										{
											OFFSET -25.764420 0.000076 -0.000063
											CHANNELS 3 Xrotation Yrotation Zrotation
											JOINT RightHandMiddle2
											{
												OFFSET -9.368942 -0.468658 -0.500905
												CHANNELS 3 Xrotation Yrotation Zrotation
												JOINT RightHandMiddle3
												{
													OFFSET -10.758461 -0.538101 0.000023
													CHANNELS 3 Xrotation Yrotation Zrotation
													End Site
													{
														OFFSET 0.000000 0.000000 0.000000
													}
												}
											}
										}
										JOINT RightHandRing1
										{
											OFFSET -24.660912 0.144745 -6.225863
											CHANNELS 3 Xrotation Yrotation Zrotation
											JOINT RightHandRing2
											{
												OFFSET -9.393806 0.000046 -0.000017
												CHANNELS 3 Xrotation Yrotation Zrotation
												JOINT RightHandRing3
												{
													OFFSET -9.928528 -0.000015 -0.000007
													CHANNELS 3 Xrotation Yrotation Zrotation
													End Site
													{
														OFFSET 0.000000 0.000000 0.000000
													}
												}
											}
										}
										JOINT RightHandPinky1
										{
											OFFSET -23.655312 0.125748 -12.815530
											CHANNELS 3 Xrotation Yrotation Zrotation
											JOINT RightHandPinky2
											{
												OFFSET -8.425102 0.000031 -0.000015
												CHANNELS 3 Xrotation Yrotation Zrotation
												JOINT RightHandPinky3
												{
													OFFSET -8.146980 0.000015 -0.000021
													CHANNELS 3 Xrotation Yrotation Zrotation
													End Site
													{
														OFFSET 0.000000 0.000000 0.000000
													}
												}
											}
										}
									}
								}
							}
						}
					}
				}
			}
		}
	}
	JOINT LeftUpLeg
	{
		OFFSET 11.394079 -6.187805 -0.413817
		CHANNELS 3 Xrotation Yrotation Zrotation
		JOINT LeftLeg
		{
			OFFSET 0.435522 -32.302582 3.732836
			CHANNELS 3 Xrotation Yrotation Zrotation
			JOINT LeftFoot
			{
				OFFSET -0.422448 -48.265030 -6.423308
				CHANNELS 3 Xrotation Yrotation Zrotation
				JOINT LeftToeBase
				{
					OFFSET 4.230914 -16.068172 23.438400
					CHANNELS 3 Xrotation Yrotation Zrotation
					JOINT LeftToe_End
					{
						OFFSET 4.510741 0.695408 19.974636
						CHANNELS 3 Xrotation Yrotation Zrotation
						End Site
						{
							OFFSET 0.000000 0.000000 0.000000
						}
					}
				}
			}
		}
	}
	JOINT RightUpLeg
	{
		OFFSET -11.333660 -6.187805 -0.413817
		CHANNELS 3 Xrotation Yrotation Zrotation
		JOINT RightLeg
		{
			OFFSET -0.425090 -32.302704 3.733010
			CHANNELS 3 Xrotation Yrotation Zrotation
			JOINT RightFoot
			{
				OFFSET 0.438313 -48.264862 -6.423481
				CHANNELS 3 Xrotation Yrotation Zrotation
				JOINT RightToeBase
				{
					OFFSET -4.230914 -16.068172 23.438402
					CHANNELS 3 Xrotation Yrotation Zrotation
					JOINT RightToe_End
					{
						OFFSET -4.510741 0.695407 19.974638
						CHANNELS 3 Xrotation Yrotation Zrotation
						End Site
						{
							OFFSET 0.000000 0.000000 0.000000
						}
					}
				}
			}
		}
	}
}
MOTION
Frames: 4
Frame Time: 0.016667
1.431454 99.790115 0.676288 -0.383405 -0.120797 -1.617533 -9.200665 1.271911 1.131392 7.246683 -0.041692 -1.878295 0.000000 0.000000 0.000000 7.251812 0.041102 -1.863932 2.287006 -1.008077 3.029063 -5.069787 -2.335752 2.401237 -0.000000 -0.000000 0.000000 0.892943 -0.363511 -11.998623 0.000000 0.000000 0.000000 17.011894 -35.715483 -54.455561 0.000113 -20.409095 0.000152 -23.813615 -1.910835 7.750222 0.995432 26.049800 8.516632 5.879484 15.711146 1.896975 0.427571 5.430685 3.294882 -0.000000 -0.000002 0.000001 0.318247 2.073483 -17.452071 0.139679 1.382778 -11.535847 -0.000002 -0.000000 -0.000000 -0.574137 -0.140024 -20.138063 0.571796 5.086217 -17.497138 -0.000000 0.000001 0.000001 0.927752 3.457583 -30.034288 0.639967 2.903958 -24.850692 -0.000000 0.000000 0.000002 3.744652 7.361258 -36.030279 0.959038 -0.570642 -30.806872 0.000002 -0.000001 0.000001 1.709893 -7.765211 12.112778 0.000000 0.000000 0.000000 26.986465 49.483874 49.499976 0.000162 28.237887 -0.000164 -44.986310 -0.073734 -10.368598 6.253017 -20.774809 -12.651261 7.504525 -13.863226 0.512639 0.120397 -2.489158 -2.005757 -0.000000 0.000001 0.000002 0.531393 -2.671094 22.501336 0.231351 -1.782323 14.790559 -0.000001 -0.000000 -0.000002 -0.565505 -0.248540 22.880681 0.609841 -5.195428 18.290041 -0.000001 -0.000000 -0.000005 0.927324 -3.474959 29.877109 0.535639 -2.681080 22.592449 0.000000 -0.000000 -0.000000 1.161994 -3.853970 33.547833 0.696766 -3.039040 25.820745 0.000000 0.000001 0.000003 -9.659295 5.193726 1.246432 22.683072 -6.418284 -0.879219 -12.529162 -1.527814 3.560900 -0.011896 -0.000001 -0.000001 0.000000 -0.000000 -0.000000 -9.604023 -3.742597 1.291489 20.724286 5.730183 -0.554759 -10.571456 -0.042610 -0.817846 -0.000048 0.000000 -0.000000 -0.000000 0.000000 0.000000 
1.429921 99.806435 0.633723 -0.474875 -0.223725 -1.553578 -9.015830 1.194947 1.162333 7.243670 -0.054628 -1.914696 0.000000 0.000000 0.000000 7.249079 0.027203 -1.900874 2.289488 -0.980009 2.997443 -5.155913 -2.237615 2.396680 0.000000 0.000000 -0.000000 0.896146 -0.370154 -11.998616 0.000000 0.000000 0.000000 16.953602 -35.995309 -54.460524 0.000100 -19.793239 0.000126 -25.584304 -1.756121 7.677819 1.036254 26.083394 8.508128 5.885732 15.713837 1.886688 0.430427 5.432122 3.290210 -0.000000 0.000000 0.000002 0.350807 2.174272 -18.330769 0.139975 1.384223 -11.548046 0.000000 0.000001 0.000000 -0.572858 -0.020282 -21.009006 0.572098 5.087029 -17.504378 0.000001 -0.000001 0.000000 0.988082 3.559714 -30.903201 0.640002 2.904054 -24.851730 -0.000000 -0.000001 -0.000001 3.869595 7.424577 -36.903304 0.958820 -0.571013 -30.803228 0.000000 0.000001 0.000001 1.710735 -7.768556 12.112876 0.000000 0.000000 0.000000 26.439345 49.476391 49.836813 0.000155 27.945137 -0.000142 -44.498761 -0.016856 -10.381257 6.274988 -20.806899 -12.650368 7.504524 -13.863226 0.512642 0.120398 -2.489157 -2.005755 -0.000000 0.000001 0.000003 0.532040 -2.672662 22.515333 0.231811 -1.784067 14.805340 0.000001 0.000000 0.000001 -0.563297 -0.254216 22.889641 0.610277 -5.196562 18.300174 -0.000001 -0.000000 -0.000001 0.933101 -3.484990 29.880128 0.535840 -2.681557 22.596708 0.000001 -0.000000 -0.000002 1.171123 -3.867703 33.545538 0.696764 -3.039033 25.820623 0.000000 0.000001 0.000005 -9.457407 5.536161 1.138762 22.525530 -6.371138 -0.868335 -12.510729 -1.056812 3.623746 -0.012531 -0.000001 -0.000000 0.000000 0.000000 -0.000000 -9.565165 -3.397201 1.231165 20.720506 5.460959 -0.484347 -10.535639 0.016013 -0.781506 -0.000003 -0.000001 0.000000 -0.000000 0.000000 0.000000 
1.424742 99.817467 0.587840 -0.586687 -0.254947 -1.544568 -8.658045 1.103692 1.201650 7.158618 -0.064565 -1.933345 0.000000 0.000000 0.000000 7.164082 0.014678 -1.920350 2.298063 -0.960203 2.970376 -5.268168 -2.191121 2.429276 -0.000000 0.000000 0.000000 0.900169 -0.376596 -11.998604 0.000000 0.000000 0.000000 16.678656 -35.917557 -54.590331 0.000112 -19.436118 0.000137 -27.561854 -1.507148 7.495424 1.068045 26.109542 8.501516 5.890703 15.715960 1.878485 0.432691 5.433269 3.286518 0.000001 0.000000 0.000001 0.352113 2.178198 -18.365112 0.140203 1.385317 -11.557342 0.000000 -0.000000 -0.000000 -0.565371 -0.000978 -21.027234 0.571877 5.086430 -17.498953 -0.000000 -0.000000 -0.000001 1.009393 3.595243 -30.902709 0.638802 2.901464 -24.827908 0.000000 -0.000000 -0.000000 3.905189 7.473039 -36.888165 0.956507 -0.574893 -30.765904 0.000003 -0.000000 -0.000000 1.711241 -7.754986 12.112473 0.000000 0.000000 0.000000 26.139404 49.451102 50.005492 0.000146 27.828827 -0.000143 -44.171663 0.037513 -10.380326 6.291593 -20.831158 -12.649677 7.504524 -13.863227 0.512642 0.120398 -2.489160 -2.005757 0.000001 0.000003 0.000003 0.532526 -2.673845 22.525776 0.232167 -1.785385 14.816574 -0.000000 0.000000 -0.000002 -0.556908 -0.266932 22.885331 0.610168 -5.196279 18.297640 -0.000002 0.000001 -0.000001 0.948255 -3.511367 29.858278 0.534914 -2.679336 22.576893 -0.000001 -0.000000 0.000000 1.195947 -3.905139 33.507870 0.695029 -3.035454 25.788004 -0.000000 0.000000 0.000000 -9.310397 5.792196 1.109500 22.459262 -6.380380 -0.857315 -12.502625 -0.734869 3.670873 -0.014041 -0.000001 -0.000000 -0.000000 0.000000 0.000000 -9.471661 -3.011791 1.229355 20.680928 5.119459 -0.388567 -10.497664 0.040801 -0.750189 -0.000106 0.000001 -0.000000 -0.000000 -0.000000 0.000000 
1.417844 99.826309 0.536147 -0.709818 -0.239738 -1.569157 -8.174576 1.008283 1.254475 7.011702 -0.071746 -1.944896 0.000000 0.000000 0.000000 7.017102 0.003845 -1.932846 2.313502 -0.946553 2.947247 -5.389746 -2.180465 2.484540 -0.000000 0.000000 -0.000000 0.904812 -0.378311 -11.998597 0.000000 0.000000 0.000000 16.265083 -35.617531 -54.786470 0.000114 -19.258063 0.000148 -29.734098 -1.187379 7.259573 1.093807 26.130716 8.496141 5.894804 15.717727 1.871737 0.434582 5.434216 3.283442 0.000000 0.000001 -0.000002 0.353164 2.181354 -18.392719 0.140381 1.386190 -11.564669 -0.000001 -0.000000 -0.000003 -0.553120 0.026828 -21.028604 0.571184 5.084560 -17.482274 -0.000000 0.000000 -0.000002 1.042396 3.650371 -30.873377 0.636439 2.896360 -24.781188 0.000001 0.000000 0.000001 3.959488 7.550790 -36.834626 0.952256 -0.582039 -30.697090 0.000002 -0.000001 0.000002 1.711479 -7.731766 12.111802 0.000000 0.000000 0.000000 26.019411 49.413167 50.048307 0.000153 27.841963 -0.000141 -43.913766 0.078985 -10.355152 6.304570 -20.850098 -12.649136 7.504527 -13.863228 0.512641 0.120398 -2.489158 -2.005755 -0.000001 -0.000000 0.000001 0.532907 -2.674742 22.533873 0.232441 -1.786433 14.825458 -0.000001 -0.000000 -0.000002 -0.546519 -0.286534 22.869374 0.609573 -5.194739 18.283921 -0.000001 0.000001 0.000001 0.972438 -3.553554 29.813503 0.532962 -2.674626 22.535017 -0.000000 -0.000000 -0.000000 1.235805 -3.965490 33.437338 0.691705 -3.028574 25.725079 -0.000001 0.000001 0.000004 -9.199886 5.956009 1.122953 22.446799 -6.372910 -0.847326 -12.497211 -0.517706 3.697213 -0.016324 -0.000001 -0.000001 -0.000000 0.000000 0.000000 -9.347210 -2.608588 1.259799 20.616159 4.738195 -0.273825 -10.453696 0.047201 -0.723982 -0.000041 -0.000000 0.000000 0.000000 0.000000 -0.000000 
